<mxfile host="app.diagrams.net" agent="Mozilla/5.0 (Macintosh; Intel Mac OS X 10_15_7) AppleWebKit/537.36 (KHTML, like Gecko) Chrome/129.0.0.0 Safari/537.36" version="24.7.17">
  <diagram id="a74A-L6EkmvisKTZA3e9" name="Страница — 10">
    <mxGraphModel dx="1442" dy="946" grid="1" gridSize="10" guides="1" tooltips="1" connect="1" arrows="1" fold="1" page="1" pageScale="1" pageWidth="827" pageHeight="1169" math="0" shadow="0">
      <root>
        <mxCell id="0" />
        <mxCell id="1" parent="0" />
        <mxCell id="cAMfiZWgI1EzlLPTCOPY-5" value="Я как пользователь мобильного приложения Я.Музыка, хочу иметь возможность просматривать недавно прослушанную музыку,&amp;nbsp;&lt;div style=&quot;font-size: 15px;&quot;&gt;для того что бы найти песню которую прослушала и не успела добавить к себе.&lt;/div&gt;" style="text;html=1;align=left;verticalAlign=middle;resizable=0;points=[];autosize=1;strokeColor=none;fillColor=none;perimeterSpacing=0;imageAlign=left;" parent="1" vertex="1">
          <mxGeometry x="40" y="30" width="760" height="50" as="geometry" />
        </mxCell>
        <mxCell id="KF0SVMWOUq44OMPNZquQ-2" value="" style="rounded=0;whiteSpace=wrap;html=1;" parent="1" vertex="1">
          <mxGeometry x="20" y="120" width="240" height="400" as="geometry" />
        </mxCell>
        <mxCell id="3rYcn_2GjxAOXT2uyVx5-100" style="edgeStyle=orthogonalEdgeStyle;rounded=0;orthogonalLoop=1;jettySize=auto;html=1;entryX=0;entryY=0.5;entryDx=0;entryDy=0;" parent="1" source="5VuSOxMjio3ZwecwM827-2" target="3rYcn_2GjxAOXT2uyVx5-39" edge="1">
          <mxGeometry relative="1" as="geometry" />
        </mxCell>
        <mxCell id="5VuSOxMjio3ZwecwM827-2" value="" style="rounded=0;whiteSpace=wrap;html=1;" parent="1" vertex="1">
          <mxGeometry x="330" y="120" width="240" height="400" as="geometry" />
        </mxCell>
        <mxCell id="5VuSOxMjio3ZwecwM827-3" value="&lt;span style=&quot;color: rgba(0, 0, 0, 0); font-family: monospace; font-size: 0px; text-align: start; text-wrap: nowrap;&quot;&gt;%3CmxGraphModel%3E%3Croot%3E%3CmxCell%20id%3D%220%22%2F%3E%3CmxCell%20id%3D%221%22%20parent%3D%220%22%2F%3E%3CmxCell%20id%3D%222%22%20value%3D%22%D0%BC%D0%BE%D0%B6%D0%B5%D1%82%20%D0%BF%D0%BE%D0%BD%D1%80%D0%B0%D0%B2%D0%B8%D1%82%D1%8C%D1%81%D1%8F%26amp%3Bnbsp%3B%22%20style%3D%22rounded%3D1%3BwhiteSpace%3Dwrap%3Bhtml%3D1%3B%22%20vertex%3D%221%22%20parent%3D%221%22%3E%3CmxGeometry%20x%3D%22355%22%20y%3D%22290%22%20width%3D%2290%22%20height%3D%2240%22%20as%3D%22geometry%22%2F%3E%3C%2FmxCell%3E%3C%2Froot%3E%3C%2FmxGraphModel%3E&lt;/span&gt;" style="rounded=0;whiteSpace=wrap;html=1;" parent="1" vertex="1">
          <mxGeometry x="895" y="120" width="240" height="400" as="geometry" />
        </mxCell>
        <mxCell id="bYZF3VNB9L8djOaQBf30-3" value="" style="verticalLabelPosition=bottom;verticalAlign=top;html=1;shape=mxgraph.basic.donut;dx=25;fillColor=#f8cecc;gradientColor=#ea6b66;strokeColor=#b85450;" parent="1" vertex="1">
          <mxGeometry x="60" y="240" width="160" height="140" as="geometry" />
        </mxCell>
        <mxCell id="bYZF3VNB9L8djOaQBf30-4" value="МИКС" style="ellipse;shape=doubleEllipse;whiteSpace=wrap;html=1;aspect=fixed;fillColor=#e6d0de;gradientColor=#d5739d;strokeColor=#996185;" parent="1" vertex="1">
          <mxGeometry x="85" y="255" width="110" height="110" as="geometry" />
        </mxCell>
        <mxCell id="bYZF3VNB9L8djOaQBf30-5" value="" style="rounded=1;whiteSpace=wrap;html=1;" parent="1" vertex="1">
          <mxGeometry x="20" y="460" width="240" height="60" as="geometry" />
        </mxCell>
        <mxCell id="bYZF3VNB9L8djOaQBf30-6" value="&lt;font face=&quot;Verdana&quot;&gt;домой&lt;/font&gt;" style="rounded=1;whiteSpace=wrap;html=1;align=center;" parent="1" vertex="1">
          <mxGeometry x="30" y="475" width="40" height="30" as="geometry" />
        </mxCell>
        <mxCell id="bYZF3VNB9L8djOaQBf30-13" value="" style="rounded=0;whiteSpace=wrap;html=1;" parent="1" vertex="1">
          <mxGeometry x="30" y="130" width="220" height="60" as="geometry" />
        </mxCell>
        <mxCell id="bYZF3VNB9L8djOaQBf30-14" value="профиль" style="rounded=1;whiteSpace=wrap;html=1;" parent="1" vertex="1">
          <mxGeometry x="30" y="130" width="50" height="30" as="geometry" />
        </mxCell>
        <mxCell id="bYZF3VNB9L8djOaQBf30-15" value="поиск" style="rounded=1;whiteSpace=wrap;html=1;" parent="1" vertex="1">
          <mxGeometry x="200" y="130" width="50" height="30" as="geometry" />
        </mxCell>
        <mxCell id="bYZF3VNB9L8djOaQBf30-16" value="ГЛАВНАЯ" style="rounded=1;whiteSpace=wrap;html=1;" parent="1" vertex="1">
          <mxGeometry x="30" y="160" width="220" height="30" as="geometry" />
        </mxCell>
        <mxCell id="bYZF3VNB9L8djOaQBf30-18" value="" style="rounded=1;whiteSpace=wrap;html=1;" parent="1" vertex="1">
          <mxGeometry x="340" y="210" width="220" height="140" as="geometry" />
        </mxCell>
        <mxCell id="bYZF3VNB9L8djOaQBf30-19" value="мой плейлист" style="rounded=1;whiteSpace=wrap;html=1;" parent="1" vertex="1">
          <mxGeometry x="355" y="230" width="90" height="40" as="geometry" />
        </mxCell>
        <mxCell id="bYZF3VNB9L8djOaQBf30-20" value="избранное" style="rounded=1;whiteSpace=wrap;html=1;" parent="1" vertex="1">
          <mxGeometry x="460" y="230" width="90" height="40" as="geometry" />
        </mxCell>
        <mxCell id="bYZF3VNB9L8djOaQBf30-21" value="может понравиться&amp;nbsp;" style="rounded=1;whiteSpace=wrap;html=1;" parent="1" vertex="1">
          <mxGeometry x="355" y="290" width="90" height="40" as="geometry" />
        </mxCell>
        <mxCell id="bYZF3VNB9L8djOaQBf30-23" value="" style="rounded=1;whiteSpace=wrap;html=1;" parent="1" vertex="1">
          <mxGeometry x="330" y="460" width="240" height="60" as="geometry" />
        </mxCell>
        <mxCell id="bYZF3VNB9L8djOaQBf30-24" value="&lt;font face=&quot;Verdana&quot;&gt;домой&lt;/font&gt;" style="rounded=1;whiteSpace=wrap;html=1;align=center;" parent="1" vertex="1">
          <mxGeometry x="340" y="475" width="40" height="30" as="geometry" />
        </mxCell>
        <mxCell id="bYZF3VNB9L8djOaQBf30-25" value="книги" style="rounded=1;whiteSpace=wrap;html=1;" parent="1" vertex="1">
          <mxGeometry x="394" y="475" width="40" height="30" as="geometry" />
        </mxCell>
        <mxCell id="bYZF3VNB9L8djOaQBf30-26" value="детям" style="rounded=1;whiteSpace=wrap;html=1;" parent="1" vertex="1">
          <mxGeometry x="460" y="475" width="40" height="30" as="geometry" />
        </mxCell>
        <mxCell id="yTtoshEsUqfUit74xUUA-1" value="поиск" style="rounded=1;whiteSpace=wrap;html=1;" parent="1" vertex="1">
          <mxGeometry x="515" y="130" width="55" height="30" as="geometry" />
        </mxCell>
        <mxCell id="yhj3Gop6cWTQPORHKd2A-1" style="edgeStyle=orthogonalEdgeStyle;rounded=1;orthogonalLoop=1;jettySize=auto;html=1;curved=0;" parent="1" target="5VuSOxMjio3ZwecwM827-2" edge="1">
          <mxGeometry relative="1" as="geometry">
            <mxPoint x="250" y="489.98360655737713" as="sourcePoint" />
          </mxGeometry>
        </mxCell>
        <mxCell id="yTtoshEsUqfUit74xUUA-6" value="♡" style="rounded=1;whiteSpace=wrap;html=1;strokeColor=#33FF33;" parent="1" vertex="1">
          <mxGeometry x="515" y="475" width="40" height="30" as="geometry" />
        </mxCell>
        <mxCell id="TgeSc_u1kNMckccwNr7K-1" value="ВЫ НЕДАВНО СЛУШАЛИ" style="rounded=1;whiteSpace=wrap;html=1;fillColor=#d5e8d4;gradientColor=#97d077;strokeColor=#82b366;" parent="1" vertex="1">
          <mxGeometry x="920" y="170" width="190" height="60" as="geometry" />
        </mxCell>
        <mxCell id="TgeSc_u1kNMckccwNr7K-18" value="название песни" style="rounded=1;whiteSpace=wrap;html=1;" parent="1" vertex="1">
          <mxGeometry x="910" y="260" width="210" height="20" as="geometry" />
        </mxCell>
        <mxCell id="TgeSc_u1kNMckccwNr7K-19" value="название песни" style="rounded=1;whiteSpace=wrap;html=1;" parent="1" vertex="1">
          <mxGeometry x="910" y="290" width="210" height="20" as="geometry" />
        </mxCell>
        <mxCell id="TgeSc_u1kNMckccwNr7K-20" value="название песни" style="rounded=1;whiteSpace=wrap;html=1;" parent="1" vertex="1">
          <mxGeometry x="910" y="320" width="210" height="20" as="geometry" />
        </mxCell>
        <mxCell id="TgeSc_u1kNMckccwNr7K-21" value="&lt;meta charset=&quot;utf-8&quot;&gt;&lt;span style=&quot;color: rgb(0, 0, 0); font-family: Helvetica; font-size: 12px; font-style: normal; font-variant-ligatures: normal; font-variant-caps: normal; font-weight: 400; letter-spacing: normal; orphans: 2; text-align: center; text-indent: 0px; text-transform: none; widows: 2; word-spacing: 0px; -webkit-text-stroke-width: 0px; white-space: normal; background-color: rgb(251, 251, 251); text-decoration-thickness: initial; text-decoration-style: initial; text-decoration-color: initial; display: inline !important; float: none;&quot;&gt;название песни&lt;/span&gt;" style="rounded=1;whiteSpace=wrap;html=1;" parent="1" vertex="1">
          <mxGeometry x="910" y="355" width="210" height="20" as="geometry" />
        </mxCell>
        <mxCell id="TgeSc_u1kNMckccwNr7K-22" value="&lt;meta charset=&quot;utf-8&quot;&gt;&lt;span style=&quot;color: rgb(0, 0, 0); font-family: Helvetica; font-size: 12px; font-style: normal; font-variant-ligatures: normal; font-variant-caps: normal; font-weight: 400; letter-spacing: normal; orphans: 2; text-align: center; text-indent: 0px; text-transform: none; widows: 2; word-spacing: 0px; -webkit-text-stroke-width: 0px; white-space: normal; background-color: rgb(251, 251, 251); text-decoration-thickness: initial; text-decoration-style: initial; text-decoration-color: initial; display: inline !important; float: none;&quot;&gt;название песни&lt;/span&gt;" style="rounded=1;whiteSpace=wrap;html=1;" parent="1" vertex="1">
          <mxGeometry x="910" y="390" width="210" height="20" as="geometry" />
        </mxCell>
        <mxCell id="TgeSc_u1kNMckccwNr7K-26" value="&lt;meta charset=&quot;utf-8&quot;&gt;&lt;span style=&quot;color: rgb(0, 0, 0); font-family: Helvetica; font-size: 12px; font-style: normal; font-variant-ligatures: normal; font-variant-caps: normal; font-weight: 400; letter-spacing: normal; orphans: 2; text-align: center; text-indent: 0px; text-transform: none; widows: 2; word-spacing: 0px; -webkit-text-stroke-width: 0px; white-space: normal; background-color: rgb(251, 251, 251); text-decoration-thickness: initial; text-decoration-style: initial; text-decoration-color: initial; display: inline !important; float: none;&quot;&gt;название песни&lt;/span&gt;" style="rounded=1;whiteSpace=wrap;html=1;" parent="1" vertex="1">
          <mxGeometry x="910" y="425" width="210" height="20" as="geometry" />
        </mxCell>
        <mxCell id="TgeSc_u1kNMckccwNr7K-27" value="" style="rounded=1;whiteSpace=wrap;html=1;" parent="1" vertex="1">
          <mxGeometry x="895" y="460" width="240" height="60" as="geometry" />
        </mxCell>
        <mxCell id="TgeSc_u1kNMckccwNr7K-28" value="&lt;font face=&quot;Verdana&quot;&gt;домой&lt;/font&gt;" style="rounded=1;whiteSpace=wrap;html=1;align=center;" parent="1" vertex="1">
          <mxGeometry x="910" y="475" width="40" height="30" as="geometry" />
        </mxCell>
        <mxCell id="TgeSc_u1kNMckccwNr7K-29" value="книги" style="rounded=1;whiteSpace=wrap;html=1;" parent="1" vertex="1">
          <mxGeometry x="970" y="475" width="40" height="30" as="geometry" />
        </mxCell>
        <mxCell id="TgeSc_u1kNMckccwNr7K-30" value="детям" style="rounded=1;whiteSpace=wrap;html=1;" parent="1" vertex="1">
          <mxGeometry x="1030" y="475" width="40" height="30" as="geometry" />
        </mxCell>
        <mxCell id="TgeSc_u1kNMckccwNr7K-31" value="♡" style="rounded=1;whiteSpace=wrap;html=1;strokeColor=#000000;" parent="1" vertex="1">
          <mxGeometry x="1090" y="475" width="40" height="30" as="geometry" />
        </mxCell>
        <mxCell id="TgeSc_u1kNMckccwNr7K-33" value="поиск" style="rounded=1;whiteSpace=wrap;html=1;" parent="1" vertex="1">
          <mxGeometry x="1080" y="130" width="55" height="30" as="geometry" />
        </mxCell>
        <mxCell id="TgeSc_u1kNMckccwNr7K-34" value="профиль" style="rounded=1;whiteSpace=wrap;html=1;" parent="1" vertex="1">
          <mxGeometry x="330" y="130" width="50" height="30" as="geometry" />
        </mxCell>
        <mxCell id="TgeSc_u1kNMckccwNr7K-35" value="профиль" style="rounded=1;whiteSpace=wrap;html=1;" parent="1" vertex="1">
          <mxGeometry x="895" y="130" width="50" height="30" as="geometry" />
        </mxCell>
        <mxCell id="TgeSc_u1kNMckccwNr7K-55" style="edgeStyle=orthogonalEdgeStyle;rounded=0;orthogonalLoop=1;jettySize=auto;html=1;exitX=1;exitY=0.5;exitDx=0;exitDy=0;" parent="1" edge="1">
          <mxGeometry relative="1" as="geometry">
            <mxPoint x="1210" y="350" as="targetPoint" />
            <mxPoint x="1120" y="265" as="sourcePoint" />
          </mxGeometry>
        </mxCell>
        <mxCell id="-mBMwCZpn2WlQLfKscRn-1" value="Мои подборки&amp;nbsp;" style="rounded=1;whiteSpace=wrap;html=1;" parent="1" vertex="1">
          <mxGeometry x="390" y="130" width="120" height="30" as="geometry" />
        </mxCell>
        <mxCell id="3rYcn_2GjxAOXT2uyVx5-6" value="" style="shape=cross;whiteSpace=wrap;html=1;size=0;" parent="1" vertex="1">
          <mxGeometry x="1090" y="325" width="10" height="10" as="geometry" />
        </mxCell>
        <mxCell id="3rYcn_2GjxAOXT2uyVx5-17" value="..." style="rounded=1;whiteSpace=wrap;html=1;strokeColor=#FFFF00;" parent="1" vertex="1">
          <mxGeometry x="1110" y="260" width="10" height="20" as="geometry" />
        </mxCell>
        <mxCell id="3rYcn_2GjxAOXT2uyVx5-19" value="..." style="rounded=1;whiteSpace=wrap;html=1;" parent="1" vertex="1">
          <mxGeometry x="1110" y="290" width="10" height="20" as="geometry" />
        </mxCell>
        <mxCell id="3rYcn_2GjxAOXT2uyVx5-20" value="..." style="rounded=1;whiteSpace=wrap;html=1;" parent="1" vertex="1">
          <mxGeometry x="1110" y="320" width="10" height="20" as="geometry" />
        </mxCell>
        <mxCell id="3rYcn_2GjxAOXT2uyVx5-21" value="..." style="rounded=1;whiteSpace=wrap;html=1;" parent="1" vertex="1">
          <mxGeometry x="1110" y="355" width="10" height="20" as="geometry" />
        </mxCell>
        <mxCell id="3rYcn_2GjxAOXT2uyVx5-22" value="..." style="rounded=1;whiteSpace=wrap;html=1;" parent="1" vertex="1">
          <mxGeometry x="1110" y="390" width="10" height="20" as="geometry" />
        </mxCell>
        <mxCell id="3rYcn_2GjxAOXT2uyVx5-23" value="..." style="rounded=1;whiteSpace=wrap;html=1;" parent="1" vertex="1">
          <mxGeometry x="1110" y="425" width="10" height="20" as="geometry" />
        </mxCell>
        <mxCell id="3rYcn_2GjxAOXT2uyVx5-25" value="" style="shape=cross;whiteSpace=wrap;html=1;size=0;" parent="1" vertex="1">
          <mxGeometry x="1090" y="360" width="10" height="10" as="geometry" />
        </mxCell>
        <mxCell id="3rYcn_2GjxAOXT2uyVx5-26" value="" style="shape=cross;whiteSpace=wrap;html=1;size=0;" parent="1" vertex="1">
          <mxGeometry x="1090" y="395" width="10" height="10" as="geometry" />
        </mxCell>
        <mxCell id="3rYcn_2GjxAOXT2uyVx5-107" style="edgeStyle=orthogonalEdgeStyle;rounded=0;orthogonalLoop=1;jettySize=auto;html=1;" parent="1" source="3rYcn_2GjxAOXT2uyVx5-27" edge="1">
          <mxGeometry relative="1" as="geometry">
            <mxPoint x="1210" y="470" as="targetPoint" />
          </mxGeometry>
        </mxCell>
        <mxCell id="3rYcn_2GjxAOXT2uyVx5-27" value="" style="shape=cross;whiteSpace=wrap;html=1;size=0;" parent="1" vertex="1">
          <mxGeometry x="1090" y="430" width="10" height="10" as="geometry" />
        </mxCell>
        <mxCell id="3rYcn_2GjxAOXT2uyVx5-28" value="" style="shape=cross;whiteSpace=wrap;html=1;size=0;" parent="1" vertex="1">
          <mxGeometry x="1090" y="295" width="10" height="10" as="geometry" />
        </mxCell>
        <mxCell id="3rYcn_2GjxAOXT2uyVx5-29" value="" style="shape=cross;whiteSpace=wrap;html=1;size=0;" parent="1" vertex="1">
          <mxGeometry x="1090" y="265" width="10" height="10" as="geometry" />
        </mxCell>
        <mxCell id="3rYcn_2GjxAOXT2uyVx5-37" value="коллекция" style="rounded=1;whiteSpace=wrap;html=1;strokeColor=#FF0000;" parent="1" vertex="1">
          <mxGeometry x="460" y="290" width="90" height="40" as="geometry" />
        </mxCell>
        <mxCell id="3rYcn_2GjxAOXT2uyVx5-99" style="edgeStyle=orthogonalEdgeStyle;rounded=0;orthogonalLoop=1;jettySize=auto;html=1;entryX=0;entryY=0.5;entryDx=0;entryDy=0;" parent="1" source="3rYcn_2GjxAOXT2uyVx5-39" target="5VuSOxMjio3ZwecwM827-3" edge="1">
          <mxGeometry relative="1" as="geometry" />
        </mxCell>
        <mxCell id="3rYcn_2GjxAOXT2uyVx5-39" value="" style="rounded=0;whiteSpace=wrap;html=1;" parent="1" vertex="1">
          <mxGeometry x="620" y="120" width="240" height="400" as="geometry" />
        </mxCell>
        <mxCell id="3rYcn_2GjxAOXT2uyVx5-73" style="edgeStyle=orthogonalEdgeStyle;rounded=0;orthogonalLoop=1;jettySize=auto;html=1;exitX=1;exitY=0.25;exitDx=0;exitDy=0;entryX=0;entryY=0.175;entryDx=0;entryDy=0;entryPerimeter=0;strokeColor=#FF0000;" parent="1" source="3rYcn_2GjxAOXT2uyVx5-37" target="3rYcn_2GjxAOXT2uyVx5-39" edge="1">
          <mxGeometry relative="1" as="geometry" />
        </mxCell>
        <mxCell id="3rYcn_2GjxAOXT2uyVx5-74" style="edgeStyle=orthogonalEdgeStyle;rounded=0;orthogonalLoop=1;jettySize=auto;html=1;exitX=0.5;exitY=1;exitDx=0;exitDy=0;" parent="1" source="TgeSc_u1kNMckccwNr7K-33" target="TgeSc_u1kNMckccwNr7K-33" edge="1">
          <mxGeometry relative="1" as="geometry" />
        </mxCell>
        <mxCell id="3rYcn_2GjxAOXT2uyVx5-75" value="плейлисты" style="rounded=1;whiteSpace=wrap;html=1;" parent="1" vertex="1">
          <mxGeometry x="630" y="180" width="90" height="50" as="geometry" />
        </mxCell>
        <mxCell id="3rYcn_2GjxAOXT2uyVx5-79" value="подкасты" style="rounded=1;whiteSpace=wrap;html=1;" parent="1" vertex="1">
          <mxGeometry x="630" y="245" width="90" height="50" as="geometry" />
        </mxCell>
        <mxCell id="3rYcn_2GjxAOXT2uyVx5-80" value="скачанное" style="rounded=1;whiteSpace=wrap;html=1;" parent="1" vertex="1">
          <mxGeometry x="750" y="245" width="90" height="50" as="geometry" />
        </mxCell>
        <mxCell id="3rYcn_2GjxAOXT2uyVx5-81" value="альбомы" style="rounded=1;whiteSpace=wrap;html=1;" parent="1" vertex="1">
          <mxGeometry x="750" y="180" width="90" height="50" as="geometry" />
        </mxCell>
        <mxCell id="3rYcn_2GjxAOXT2uyVx5-82" value="книги" style="rounded=1;whiteSpace=wrap;html=1;" parent="1" vertex="1">
          <mxGeometry x="630" y="310" width="90" height="50" as="geometry" />
        </mxCell>
        <mxCell id="3rYcn_2GjxAOXT2uyVx5-83" value="недавно&lt;div&gt;слушали&lt;/div&gt;" style="rounded=1;whiteSpace=wrap;html=1;strokeColor=#FF0000;" parent="1" vertex="1">
          <mxGeometry x="750" y="310" width="90" height="50" as="geometry" />
        </mxCell>
        <mxCell id="3rYcn_2GjxAOXT2uyVx5-89" value="профиль" style="rounded=1;whiteSpace=wrap;html=1;" parent="1" vertex="1">
          <mxGeometry x="620" y="130" width="50" height="30" as="geometry" />
        </mxCell>
        <mxCell id="3rYcn_2GjxAOXT2uyVx5-90" value="поиск" style="rounded=1;whiteSpace=wrap;html=1;" parent="1" vertex="1">
          <mxGeometry x="805" y="130" width="55" height="30" as="geometry" />
        </mxCell>
        <mxCell id="3rYcn_2GjxAOXT2uyVx5-95" value="&lt;font face=&quot;Verdana&quot;&gt;детям&lt;/font&gt;" style="rounded=1;whiteSpace=wrap;html=1;align=center;" parent="1" vertex="1">
          <mxGeometry x="155" y="475" width="40" height="30" as="geometry" />
        </mxCell>
        <mxCell id="3rYcn_2GjxAOXT2uyVx5-96" value="&lt;font face=&quot;Verdana&quot;&gt;книги&lt;/font&gt;" style="rounded=1;whiteSpace=wrap;html=1;align=center;" parent="1" vertex="1">
          <mxGeometry x="85" y="475" width="40" height="30" as="geometry" />
        </mxCell>
        <mxCell id="3rYcn_2GjxAOXT2uyVx5-97" value="&lt;font face=&quot;Verdana&quot;&gt;♡&lt;/font&gt;" style="rounded=1;whiteSpace=wrap;html=1;align=center;strokeColor=#FF0000;" parent="1" vertex="1">
          <mxGeometry x="210" y="475" width="40" height="30" as="geometry" />
        </mxCell>
        <mxCell id="3rYcn_2GjxAOXT2uyVx5-98" value="коллекция" style="rounded=1;whiteSpace=wrap;html=1;" parent="1" vertex="1">
          <mxGeometry x="680" y="130" width="120" height="30" as="geometry" />
        </mxCell>
        <mxCell id="3rYcn_2GjxAOXT2uyVx5-101" value="" style="rounded=1;whiteSpace=wrap;html=1;" parent="1" vertex="1">
          <mxGeometry x="620" y="460" width="240" height="60" as="geometry" />
        </mxCell>
        <mxCell id="3rYcn_2GjxAOXT2uyVx5-102" value="&lt;font face=&quot;Verdana&quot;&gt;домой&lt;/font&gt;" style="rounded=1;whiteSpace=wrap;html=1;align=center;" parent="1" vertex="1">
          <mxGeometry x="625" y="475" width="40" height="30" as="geometry" />
        </mxCell>
        <mxCell id="3rYcn_2GjxAOXT2uyVx5-103" value="книги" style="rounded=1;whiteSpace=wrap;html=1;" parent="1" vertex="1">
          <mxGeometry x="680" y="475" width="40" height="30" as="geometry" />
        </mxCell>
        <mxCell id="3rYcn_2GjxAOXT2uyVx5-104" value="детям" style="rounded=1;whiteSpace=wrap;html=1;" parent="1" vertex="1">
          <mxGeometry x="750" y="475" width="40" height="30" as="geometry" />
        </mxCell>
        <mxCell id="3rYcn_2GjxAOXT2uyVx5-105" value="♡" style="rounded=1;whiteSpace=wrap;html=1;strokeColor=#000000;" parent="1" vertex="1">
          <mxGeometry x="812.5" y="475" width="40" height="30" as="geometry" />
        </mxCell>
        <mxCell id="3rYcn_2GjxAOXT2uyVx5-106" value="исполнители,текст,информация" style="text;html=1;align=center;verticalAlign=middle;resizable=0;points=[];autosize=1;strokeColor=none;fillColor=none;" parent="1" vertex="1">
          <mxGeometry x="1190" y="345" width="210" height="30" as="geometry" />
        </mxCell>
        <mxCell id="3rYcn_2GjxAOXT2uyVx5-108" value="добавить к себе в плейлисст избранное" style="text;html=1;align=center;verticalAlign=middle;resizable=0;points=[];autosize=1;strokeColor=none;fillColor=none;" parent="1" vertex="1">
          <mxGeometry x="1200" y="475" width="250" height="30" as="geometry" />
        </mxCell>
      </root>
    </mxGraphModel>
  </diagram>
</mxfile>
